<?xml version="1.0" encoding="UTF-8" standalone="no"?>
<svg
   width="24"
   height="24"
   viewBox="0 0 24 24"
   version="1.1"
   id="svg4"
   sodipodi:docname="dark-swords.svg"
   inkscape:version="1.1.1 (3bf5ae0d25, 2021-09-20)"
   xmlns:inkscape="http://www.inkscape.org/namespaces/inkscape"
   xmlns:sodipodi="http://sodipodi.sourceforge.net/DTD/sodipodi-0.dtd"
   xmlns="http://www.w3.org/2000/svg"
   xmlns:svg="http://www.w3.org/2000/svg">
  <defs
     id="defs8" />
  <sodipodi:namedview
     id="namedview6"
     pagecolor="#ffffff"
     bordercolor="#666666"
     borderopacity="1.0"
     inkscape:pageshadow="2"
     inkscape:pageopacity="0.0"
     inkscape:pagecheckerboard="0"
     showgrid="false"
     inkscape:zoom="34.666667"
     inkscape:cx="11.985577"
     inkscape:cy="12.014423"
     inkscape:window-width="1920"
     inkscape:window-height="1017"
     inkscape:window-x="1912"
     inkscape:window-y="-8"
     inkscape:window-maximized="1"
     inkscape:current-layer="svg4" />
  <path
     fill="currentColor"
     d="m19.05 21.6l-2.925-2.9l-2.2 2.2l-.7-.7q-.575-.575-.575-1.425t.575-1.425l4.225-4.225q.575-.575 1.425-.575t1.425.575l.7.7l-2.2 2.2l2.9 2.925q.3.3.3.7t-.3.7l-1.25 1.25q-.3.3-.7.3t-.7-.3M22 5.9L10.65 17.25l.125.1q.575.575.575 1.425t-.575 1.425l-.7.7l-2.2-2.2l-2.925 2.9q-.3.3-.7.3t-.7-.3L2.3 20.35q-.3-.3-.3-.7t.3-.7l2.9-2.925l-2.2-2.2l.7-.7q.575-.575 1.425-.575t1.425.575l.1.125L18 1.9h4zM6.95 10.85L2 5.9v-4h4l4.95 4.95z"
     id="path2"
     style="fill:#c5c5c5;fill-opacity:1" />
</svg>
